<svg xmlns="http://www.w3.org/2000/svg" viewBox="0 0 1200 1478"><path fill="#ff0101" d="M487.81 255.91c-10.62 46.95 11.04 95.32 52.15 119.5a.78.77 30.3 0 1 .28 1.05l-83.3 144.25a.45.45 0 0 1-.62.16q-77.55-45.82-114.54-127.24c-57.34-126.2-10.41-278.25 107.96-350.71Q519.05.5 600.93 1.51c135.38 1.67 251.42 103.95 270.71 237.86 16.25 112.87-37.23 224.03-135.92 281.36q-.48.29-.76-.2l-83.09-143.89a.92.91-31 0 1 .31-1.24q38.36-23.41 50.45-65.68c19.5-68.22-30.69-137.32-101.64-140.44-54.15-2.37-101.33 34.28-113.18 86.63Z"/><path fill="#01ff01" d="M562.5 830.26c-.12 141.97-107 259.69-247 276.22-68.43 8.09-137.64-10.63-193.38-50.13C45.28 1001.91 1.53 910.83 5.74 817.05c3.98-88.81 50.43-170.2 124.19-219.3 87.78-58.43 201.29-61.67 292.73-9.5q.6.34.26.94l-83.26 144.2q-.27.49-.76.21-38.49-21.37-80.64-11.6c-66.77 15.47-103.31 89.23-75.86 151.98 19.11 43.66 64.34 70.6 111.88 66.09 57.34-5.45 99.52-52.71 100.55-109.92a.41.4 0 0 1 .41-.4H562q.5 0 .5.51Z"/><path fill="#0100ff" d="M704.2 1012.8c-115.48-131.9-80.82-336.02 70.06-423.98q.46-.26.72.19l83.3 144.26q.3.53-.22.84-29.68 17.71-44.12 48.07c-30.17 63.39 5.87 139 74.3 155.33 33.71 8.04 69.24-.15 95.92-22.09 60.23-49.52 51.81-141.21-14.23-181.42q-.48-.29-.2-.77l83.21-144.08q.29-.51.81-.23 4.03 2.15 7.79 4.52c110.29 69.44 158.21 204.78 115.4 328.37-25.61 73.96-83.36 135.01-155.61 164.93-110.87 45.92-237.98 16.48-317.13-73.94Z"/><path fill="#050505" d="M31.94 1392.31c-17.25-14.23-19.96-48.84-21.2-69.98-1.48-25.22-1.16-51.49 1.9-76.59q1.82-14.93 6.37-32.5 5.65-21.8 26.46-29.73c15.09-5.75 29.66-7.61 46.75-8.94q27.01-2.1 54.05.52c15.28 1.48 34.39 5.47 46.67 14.97 14.46 11.19 18.55 35.6 20.4 52.46q5.41 49.41-.31 98.79c-1.69 14.6-4.67 31.51-12.25 43.45-9.36 14.73-32.87 20.39-49.27 22.41q-34.68 4.25-69.52 1.17c-17.28-1.52-37.18-5.4-50.05-16.03Zm22.18-76.25c.28 11.99.75 45.66 15.37 50.24 20.92 6.55 45.02 6.2 66.82 4.24 13.62-1.23 26.98-3.48 30.81-18.54q3.49-13.77 4.12-30.25 1.4-36.68.02-64.5-.72-14.34-4.43-29.77c-5.19-21.66-70.68-15.87-86.45-13.43-8.36 1.3-18.41 4.44-20.99 13.66q-2.52 8.99-3.27 18.3-2.82 34.97-2 70.05ZM853.68 1408.35c-17.55-1.46-46.38-5.66-57.21-23.34q-3.43-5.61-6.51-17.26-3.88-14.65-5.65-37.43-3.17-40.54-2.23-71.31.68-22.65 4.96-38.2c5.41-19.63 14.52-31.55 33.87-38.18 26.57-9.1 58.64-9.66 88.08-8.33 15.2.69 36.82 3.5 48.56 13.48 17.36 14.74 18.19 44.7 17.93 65.23q-.01.49-.5.49h-42.75q-.57 0-.56-.57c.2-10.11.06-21.86-4.69-30.06-5.66-9.78-21.52-10.57-30.98-10.88-17.18-.58-34.35-.97-51.05 3.73-8.79 2.48-13.27 6.87-15.02 15.74-5.64 28.53-4.49 59.37-3.15 88.29q.74 15.85 3.66 31.43c1.9 10.09 8.45 15.32 18.58 17.31 15.64 3.06 29.19 3.63 45.05 2.89q11.21-.53 21.42-2.61c19.38-3.95 19.35-26.64 18.18-41.87q-.1-1.38 1.27-1.38l42.31-.03a.65.64 0 0 1 .65.64c.13 20.58-.4 55.64-18.05 69.45-13.37 10.47-36.84 12.12-53.57 13.23q-26.29 1.74-52.6-.46ZM1200 1176.05v4.76q-36.95 112.64-72.83 225.62c-.56 1.75-2.88.95-3.94.98q-30.21.7-60.41.01-1.69-.04-3.37-.23-.53-.06-.69-.56l-73.21-229.7q-.34-1.07.78-1.09 19.7-.34 40.17-.13 1 .02 3.91.41.52.07.68.57c20.95 64.34 43.45 128.57 61.25 193.39a.54.54 0 0 0 1.03.01c5.97-19.85 11.26-39.93 17.68-59.62q21.85-67.01 43.58-134.06a.51.49-82 0 1 .44-.34q9.46-.52 18.93-.57 5.48-.03 26 .55ZM286.82 1385.04a.44.44 0 0 0-.82.22v91.9q0 .35-.35.35l-39.17.01a.48.48 0 0 1-.48-.48v-230.79a.5.5 0 0 1 .5-.5h37.77q.52 0 .49.52l-1.05 22.23a.4.4 0 0 0 .72.27q2.81-3.66 5.7-7.14c18.01-21.71 61.45-22.51 84.8-10.05 16.75 8.93 21.63 29.17 23.55 47.17q2.93 27.43-.29 56.74c-2.42 22.13-9.17 43.24-32.95 50.17-20.29 5.91-50.67 6.88-67.86-7.89q-6.26-5.38-10.56-12.73Zm10.62-11.73c11.13 7.8 29.83 7.66 42.83 4.29 13.79-3.57 17.07-13.48 18.41-26.36 2.03-19.4 2.15-38.63-1.67-58.22-4-20.55-28.13-20.66-44.32-18.84-11 1.24-20.55 5.67-23.18 17.07q-3.88 16.82-3.58 34c.23 12.79-.48 39.67 11.51 48.06ZM463.53 1334c.25 9.93.33 21.15 3.59 30.59 5.75 16.66 26.66 15.03 40.39 14.97q6.22-.02 14.98-2.34c10.01-2.64 11.4-12.24 11.52-20.88a.84.83.3 0 1 .84-.82l37.14-.03a.58.58 0 0 1 .58.59c-.19 9.96-1.63 21.3-6.88 29.9-14.58 23.86-54.94 24.67-78.72 23.09-13.33-.89-24.51-2.67-36.14-7.68-15.73-6.76-21.52-22.68-23.98-38.36q-5.69-36.22-.18-72.44c1.81-11.83 5.91-24.26 14.62-32.27 19.7-18.12 66.33-16.22 90.46-11.55 8.52 1.64 18.42 5.76 24.82 12.19 9.1 9.16 13.24 26.58 14.2 39.05q1.35 17.54 1.83 35.14a.34.34 0 0 1-.34.35H464.02q-.5 0-.49.5Zm69.91-24.49a.35.35 0 0 0 .35-.32c1.19-11.82.7-30.58-14.12-33.62-11.79-2.42-41.53-5.01-50.57 5.8-5.4 6.46-5.98 19.66-5.52 27.53a.64.64 0 0 0 .64.6l69.22.01ZM643 1272.98q9.8-23.24 34.98-27.87c14.74-2.71 33.17-1.83 47.39 4.24 18.67 7.97 26.36 26.3 26.44 45.71q.25 56.06.19 112.05 0 .4-.4.4h-36.87a.73.73 0 0 1-.73-.73c0-36.5.81-73.39-.39-110.02-.43-12.93-7.88-20.82-20.9-22.49-20.72-2.66-41.47 2.25-47.18 23.82q-1.52 5.77-1.52 19.57-.01 44.67-.01 89.33 0 .5-.5.5l-37.02.03a.48.47 89.4 0 1-.48-.48v-160.97a.55.55 0 0 1 .55-.55l35.8-.03q1.12 0 1.06 1.12l-1.3 26.17a.46.46 0 0 0 .89.2Z"/></svg>